<svg xmlns="http://www.w3.org/2000/svg" viewBox="0 0 64 64" role="img" aria-label="るっちFugu">
  <defs>
    <radialGradient id="bg" cx="30%" cy="25%" r="80%">
      <stop offset="0%" stop-color="#ff857b"/>
      <stop offset="58%" stop-color="#ef5a4f"/>
      <stop offset="100%" stop-color="#9f2f34"/>
    </radialGradient>
    <linearGradient id="fish" x1="12" y1="20" x2="52" y2="44" gradientUnits="userSpaceOnUse">
      <stop offset="0%" stop-color="#fff4cf"/>
      <stop offset="100%" stop-color="#f3b85a"/>
    </linearGradient>
    <filter id="shadow" x="-20%" y="-20%" width="140%" height="140%">
      <feDropShadow dx="0" dy="3" stdDeviation="2" flood-color="#081421" flood-opacity="0.28"/>
    </filter>
  </defs>
  <rect width="64" height="64" rx="18" fill="#071424"/>
  <circle cx="32" cy="32" r="26" fill="url(#bg)" filter="url(#shadow)"/>
  <path d="M15 33c5.8-10.4 21.2-13.2 31-4.2l5.2-5.2v17.6L46 36c-9.8 9-25.2 6.2-31-3Z" fill="url(#fish)"/>
  <circle cx="28.4" cy="29.2" r="2.6" fill="#071424"/>
  <circle cx="29.2" cy="28.4" r="0.8" fill="#ffffff"/>
  <path d="M18.8 43c5.4 3.6 20.8 6 29.4-2.2" fill="none" stroke="#fff8df" stroke-width="2.4" stroke-linecap="round"/>
  <path d="M18.2 22.4 16 18.5M23.8 20.2 22.6 15.8M38.8 20.6l2.1-4M45.6 25.8l4-2.1" stroke="#fff8df" stroke-width="2" stroke-linecap="round" opacity="0.76"/>
</svg>
